<?xml version="1.0" encoding="utf-8"?>
<!-- Generator: Adobe Illustrator 16.0.4, SVG Export Plug-In . SVG Version: 6.00 Build 0)  -->
<!DOCTYPE svg PUBLIC "-//W3C//DTD SVG 1.1//EN" "http://www.w3.org/Graphics/SVG/1.1/DTD/svg11.dtd">
<svg version="1.1" id="Layer_1" xmlns="http://www.w3.org/2000/svg" xmlns:xlink="http://www.w3.org/1999/xlink" x="0px" y="0px"
	 width="1122px" height="110px" viewBox="0 0 1122 110" enable-background="new 0 0 1122 110" xml:space="preserve">
<g>
	<path fill-rule="evenodd" clip-rule="evenodd" d="M785.233,78.038c-4.412,5.029-9.043,9.136-15.373,10.284
		c-6.843,1.24-11.481-2.74-15.641-7.608c-2.052,1.556-3.84,3.198-5.891,4.39c-2.204,1.281-4.576,2.407-7.016,3.12
		c-4.14,1.21-7.547-0.32-9.84-3.974c-0.438-0.696-0.841-1.414-1.422-2.395c-0.712,0.607-1.252,1.221-1.922,1.613
		c-2.771,1.623-5.439,3.571-8.418,4.651c-3.037,1.102-6.159,0.442-8.254-2.444c-0.919-1.266-1.633-1.233-2.825-0.322
		c-7.428,5.672-18.022,3.106-22.217-2.73c-0.951-1.323-1.687-0.915-2.853-0.151c-2.83,1.852-5.657,3.882-8.776,5.082
		c-6.958,2.677-13.457-0.503-16.156-7.457c-0.301-0.775-0.729-1.553-0.799-2.355c-0.181-2.078-1.206-2.479-3.163-2.294
		c-3.558,0.336-3.57,0.199-4.271,3.868c-0.872,4.562-5.695,8.537-11.042,9.099c-5.62,0.591-10.835-2.283-12.853-7.083
		c-3.049-7.252,0.573-14.89,7.958-16.336c1.772-0.347,3.81,0.051,5.579,0.588c0.739,0.225,1.097,1.708,1.629,2.619
		c-0.854,0.45-1.696,0.924-2.569,1.332c-0.188,0.088-0.487-0.052-0.731-0.104c-2.925-0.627-5.481-0.138-7.294,2.475
		c-1.802,2.599-1.854,6.048-0.093,8.726c1.776,2.702,4.426,3.787,7.533,3.485c6.663-0.646,9.225-5.479,6.292-11.459
		c-0.371-0.757-0.337-2.516,0.009-2.666c0.927-0.405,2.147-0.345,3.21-0.186c2.086,0.312,4.127,0.953,6.218,1.201
		c1.79,0.212,2.413-0.838,2.36-2.634c-0.197-6.707,0.443-13.327,2.946-19.617c0.694-1.746,1.747-3.406,2.906-4.896
		c1.758-2.261,4.124-3.251,7.056-2.581c2.878,0.659,4.225,2.713,5.05,5.306c1.486,4.666,0.497,9.078-1.518,13.312
		c-2.293,4.817-5.587,8.873-10.012,11.9c-1.391,0.95-1.837,2.063-1.41,3.589c1.049,3.752,2.144,7.653,6.689,8.42
		c1.945,0.328,4.112-0.139,6.079-0.638c1.402-0.355,2.645-1.356,3.947-2.09c3.542-1.993,5.278-4.352,4.18-8.993
		c-1.755-7.411-0.978-14.921,1.97-22.053c1.161-2.812,2.754-5.443,5.856-6.449c4.557-1.477,8.582,1.779,9.175,7.155
		c0.721,6.53-1.44,12.327-4.588,17.816c-1.566,2.73-3.458,5.286-5.332,7.826c-0.818,1.109-0.887,1.905-0.109,3.081
		c2.797,4.229,9.786,6.035,14.531,3.549c3.034-1.59,5.291-3.926,6.635-7.167c2.331-5.623,6.187-9.608,12.36-10.916
		c3.744-0.792,7.986,1.605,8.773,4.88c0.836,3.477,1.668,6.957,2.632,10.399c0.901,3.22,2.689,4.364,6.005,3.69
		c4.325-0.879,7.708-3.479,10.6-6.651c0.499-0.548,0.277-2.031-0.001-2.967c-2.576-8.649-2.032-17.113,1.548-25.343
		c0.671-1.542,1.858-3.027,3.171-4.089c4.002-3.239,9.129-1.557,10.837,3.304c1.94,5.522,0.623,10.778-1.608,15.752
		c-1.791,3.99-4.235,7.702-6.57,11.425c-0.845,1.347-0.938,2.23,0.053,3.521c4.233,5.523,9.885,6.666,15.82,3.042
		c4.277-2.611,7.642-6.133,10.21-10.422c0.749-1.251,1.634-2.778,3.209-1.953c0.889,0.466,1.39,2.038,1.676,3.207
		c0.49,2.001,0.501,4.123,1.023,6.112c1.251,4.764,5.598,6.665,10.223,3.863c3.935-2.383,7.356-5.637,10.911-8.618
		c2.603-2.182,4.822-4.894,7.622-6.754c5.396-3.584,11.323-1.873,14.33,3.868c1.986,3.792,2.984,7.785,1.207,11.994
		c-2.102,4.978-8.054,6.926-12.493,3.93c-0.806-0.544-1.562-2.127-1.353-2.989c0.34-1.394,1.748-1.511,3.089-0.86
		c1.887,0.915,3.87,1.422,5.599-0.185c1.83-1.702,2.021-3.944,1.41-6.245c-0.316-1.195-0.686-2.42-1.288-3.485
		c-2.163-3.821-5.295-4.627-8.66-1.893c-3.347,2.72-6.207,6.042-9.563,8.749c-3.333,2.689-6.856,5.232-10.587,7.32
		c-5.5,3.077-12.214-0.85-14.292-6.474C786.219,80.167,785.791,79.311,785.233,78.038z M729.92,73.075
		c-0.698-0.656-1.461-1.118-1.859-1.795c-1.4-2.374-3.477-2.33-5.674-1.68c-4.034,1.196-7.913,6.251-8.146,10.474
		c-0.184,3.315,1.372,4.608,4.625,3.789C724.567,82.426,727.732,78.345,729.92,73.075z M755.155,71.631
		c3.104-3.122,5.146-6.826,6.274-10.873c0.871-3.123,1.21-6.457,1.274-9.708c0.022-1.131-1.283-2.864-2.362-3.243
		c-0.739-0.26-2.571,1.098-3.165,2.154C753.328,56.808,753.127,64.097,755.155,71.631z M686.635,71.721
		c0.342,0.167,0.684,0.333,1.025,0.499c1.92-3.508,4.23-6.867,5.64-10.569c1.21-3.177,1.654-6.728,1.881-10.151
		c0.081-1.225-1.467-2.557-2.271-3.84c-1.171,0.912-2.411,1.75-3.481,2.768c-0.509,0.482-0.728,1.291-1.021,1.977
		C685.733,58.668,685.918,65.174,686.635,71.721z M661.315,67.141c3.976-2.592,6.798-6.084,8.175-10.378
		c0.877-2.735,0.863-5.812,0.867-8.737c0.001-0.832-1.198-2.01-2.109-2.373c-0.575-0.229-1.962,0.545-2.413,1.24
		c-1.117,1.722-2.115,3.585-2.785,5.521C661.416,57.138,660.905,62.044,661.315,67.141z"/>
	<path fill-rule="evenodd" clip-rule="evenodd" d="M432.303,74.157c3.891-3.54,7.807-4.904,12.207-4.934
		c1.448-0.01,3.063-0.133,3.105,1.922c0.038,1.873-1.392,2.115-2.906,2.359c-2.192,0.354-4.535,0.561-6.474,1.518
		c-3.624,1.789-4.373,5.41-4.685,9.086c-0.15,1.767,0.354,4.18-2.26,4.223c-2.419,0.04-2.166-2.407-2.397-4.022
		c-0.873-6.095-1.5-12.227-2.448-18.31c-0.509-3.272-1.307-6.527-2.295-9.689c-1.054-3.372-2.526-3.781-5.242-1.402
		c-2.112,1.849-3.896,4.082-5.763,6.198c-0.822,0.933-1.428,2.054-2.242,2.995c-2.538,2.933-3.392,5.79-1.209,9.56
		c1.658,2.865,1.977,6.33,0.883,9.689c-1.113,3.421-4.512,5.668-7.655,5.052c-2.859-0.56-5.005-3.488-4.458-7.101
		c0.452-2.984,1.586-5.897,2.678-8.743c1.008-2.628,0.748-3.239-2.124-3.348c-2.984-0.112-5.622,0.953-7.786,2.861
		c-3.304,2.912-6.297,6.182-9.644,9.039c-2.754,2.352-5.586,4.854-8.817,6.354c-6.407,2.972-12.877-0.115-15.329-6.71
		c-0.283-0.762-0.651-1.491-1.829-2.829c-0.701,0.995-1.296,2.09-2.122,2.969c-3.558,3.788-7.788,6.624-12.947,7.505
		c-6.22,1.063-11.466-3.305-12.989-10.388c-0.297-1.383-0.652-2.756-0.894-4.148c-0.345-1.991-1.038-4.168-3.149-4.289
		c-2.712-0.155-5.487,0.521-8.199,1.031c-0.276,0.052-0.617,1.531-0.399,2.169c2.525,7.403-5.427,16.794-15.179,15.668
		c-2.622-0.303-4.744-2.317-5.212-5.34c-0.535-3.443-0.609-6.956-1.056-10.417c-0.144-1.118-0.831-2.167-1.27-3.247
		c-0.985,0.649-2.253,1.093-2.899,1.987c-1.7,2.352-3.123,4.903-4.667,7.369c-4.092,6.534-6.646,6.938-12.393,1.812
		c-1.804,1.479-3.609,3.021-5.477,4.48c-4.826,3.773-10.056,4.478-15.648,1.889c-5.906-2.734-8.976-7.545-9.59-13.865
		c-0.663-6.835,0.632-13.288,4.838-18.902c3.316-4.427,8.05-6.128,12.952-4.862c1.483,0.383,2.871,1.017,2.586,2.768
		c-0.317,1.954-1.923,1.7-3.38,1.424c-3.986-0.755-7.111,0.674-9.165,4.057c-3.967,6.537-5.443,13.456-1.845,20.624
		c2.69,5.359,9.673,7.438,14.793,4.346c2.731-1.648,5.115-3.938,7.428-6.175c0.666-0.644,0.736-2.104,0.748-3.192
		c0.061-5.897-0.208-11.808,0.088-17.69c0.209-4.16,1.333-8.216,3.975-11.644c1.592-2.066,3.655-3.103,6.293-2.719
		c2.71,0.395,4.134,2.142,4.982,4.635c1.376,4.044,0.702,8.088-0.776,11.738c-2.356,5.819-5.42,11.352-8.195,17
		c-0.182,0.371-0.691,0.759-0.627,1.043c0.287,1.264,0.727,2.491,1.112,3.732c0.844-0.451,1.982-0.692,2.477-1.391
		c1.68-2.371,3.052-4.957,4.701-7.352c1.075-1.561,2.232-3.172,3.689-4.341c3.872-3.105,8.634-1.193,9.281,3.714
		c0.467,3.545,0.521,7.144,0.87,10.707c0.313,3.202,1.458,3.959,4.658,3.375c4.924-0.899,8.755-5.696,7.696-10.459
		c-1.073-4.822,1.004-7.282,5.992-8.093c2.198-0.357,4.518-0.836,6.661-0.497c5.279,0.836,7.127,4.902,8.048,9.59
		c0.24,1.222,0.504,2.44,0.785,3.654c1.355,5.855,5.539,7.019,11.023,4.709c5.289-2.228,9.087-6.36,12.107-11.183
		c0.805-1.286,1.621-3.078,3.295-2.205c0.968,0.505,1.405,2.333,1.75,3.651c0.499,1.913,0.478,3.975,1.068,5.85
		c1.559,4.945,6.86,6.834,10.999,3.62c4.191-3.254,7.925-7.096,11.9-10.634c3.367-2.996,6.806-6.024,11.44-6.738
		c2.138-0.33,4.476-0.221,6.574,0.294c1.752,0.43,2.481,0.004,3.434-1.345c2.537-3.594,5.163-7.135,7.967-10.521
		c1.193-1.44,2.804-2.631,4.425-3.6c3.787-2.263,7.842-1.209,9.211,2.96c1.804,5.493,2.802,11.251,4.124,16.901
		C431.783,71.129,431.958,72.318,432.303,74.157z M274.97,69.252c3.825-6.31,6.677-12.51,7.057-19.542
		c0.073-1.342-0.731-3.571-1.7-3.955c-1.999-0.792-2.522,1.533-3.396,2.853c-0.224,0.338-0.319,0.763-0.466,1.151
		c-2.205,5.817-2.25,11.882-2.036,17.972C274.44,68.093,274.674,68.445,274.97,69.252z M404.789,74.721
		c-0.794,2.396-1.636,4.386-2.048,6.461c-0.156,0.789,0.679,1.775,1.062,2.671c0.809-0.453,1.876-0.718,2.375-1.398
		C407.273,80.958,406.543,76.635,404.789,74.721z"/>
	<path fill-rule="evenodd" clip-rule="evenodd" d="M453.254,75.651c0.321-2.216,0.455-4.485,1.06-6.622
		c0.225-0.794,1.55-1.276,2.374-1.9c0.564,0.892,1.593,1.775,1.608,2.676c0.048,2.892-0.474,5.794-0.399,8.683
		c0.061,2.369,0.705,4.67,3.597,5.313c3.149,0.7,5.813-0.087,7.434-2.688c1.974-3.168,3.661-6.515,5.516-9.758
		c0.7-1.225,1.445-2.438,2.305-3.552c1.967-2.547,4.723-3.574,7.203-2.816c3.079,0.94,4.205,3.358,4.549,6.236
		c0.277,2.312,0.227,4.664,0.523,6.974c0.149,1.16,0.749,2.264,1.145,3.393c1.057-0.681,2.344-1.166,3.123-2.083
		c1.61-1.895,2.901-4.056,4.413-6.038c1.257-1.648,2.507-3.345,4.009-4.755c1.812-1.701,4.091-2.222,6.495-1.292
		c2.324,0.897,3.045,2.957,3.312,5.17c0.319,2.643,0.375,5.32,0.725,7.958c0.424,3.195,1.85,4.132,5.01,3.392
		c4.445-1.04,7.532-3.779,9.303-7.936c2.427-5.695,6.231-9.775,12.506-11.088c3.329-0.697,7.209,1.055,8.312,4.031
		c0.347,0.935-0.25,2.218-0.414,3.341c-0.995-0.349-2.423-0.4-2.904-1.102c-1.563-2.282-3.579-2.227-5.751-1.561
		c-4.066,1.246-7.894,6.32-8.082,10.534c-0.141,3.17,1.401,4.482,4.486,3.804c3.455-0.761,6.215-2.705,8.679-5.138
		c0.77-0.76,1.416-1.672,2.272-2.31c0.602-0.447,1.696-0.965,2.157-0.708c0.742,0.413,1.379,1.366,1.646,2.221
		c0.735,2.351,1.407,4.744,1.784,7.17c0.146,0.935-0.572,2.004-0.896,3.012c-0.929-0.325-1.862-0.64-2.783-0.988
		c-0.126-0.048-0.188-0.266-0.281-0.403c-0.752-1.102-1.344-2.881-2.302-3.106c-0.887-0.21-2.088,1.436-3.288,1.924
		c-2.587,1.052-5.208,2.142-7.919,2.731c-2.511,0.545-4.782-0.511-6.311-2.662c-0.884-1.243-1.589-1.313-2.819-0.384
		c-2.716,2.053-5.814,3.175-9.271,3.184c-3.432,0.009-6.006-1.698-6.833-5.03c-0.595-2.4-0.721-4.919-1.024-7.389
		c-0.121-0.988-0.026-2.019-0.253-2.977c-0.427-1.797-1.578-2.184-2.825-0.793c-1.77,1.973-3.286,4.175-4.903,6.285
		c-1.414,1.846-2.625,3.895-4.266,5.51c-4.037,3.974-8.704,2.669-10.183-2.74c-0.325-1.188-0.408-2.456-0.488-3.694
		c-0.123-1.911,0.019-3.854-0.283-5.73c-0.149-0.925-0.896-2.245-1.632-2.448c-0.745-0.206-2.18,0.501-2.667,1.236
		c-1.647,2.484-2.963,5.185-4.493,7.752c-1.315,2.206-2.518,4.542-4.181,6.465c-2.767,3.198-6.365,4.35-10.573,3.146
		c-4.628-1.323-6.623-4.712-7.213-9.172c-0.141-1.063-0.021-2.162-0.021-3.244C453.445,75.672,453.35,75.662,453.254,75.651z"/>
	<path fill-rule="evenodd" clip-rule="evenodd" d="M590.527,65.783c-0.064-10.562,10.058-18.716,20.334-16.338
		c3.732,0.864,6.36,3.171,7.676,6.813c1.424,3.941,0.417,7.377-2.408,10.33c-3.634,3.798-8.318,5.741-13.244,7.096
		c-0.799,0.22-1.914-0.713-2.884-1.112c0.526-0.927,0.828-2.254,1.624-2.699c1.868-1.045,4.049-1.519,5.958-2.503
		c1.828-0.941,3.596-2.092,5.17-3.413c2.071-1.738,2.514-4.183,1.554-6.605c-0.911-2.301-2.83-3.646-5.37-3.925
		c-8.601-0.947-15.639,6.649-13.929,15.122c1.184,5.864,2.524,11.697,3.762,17.551c0.153,0.724,0.344,1.587,0.091,2.214
		c-0.329,0.815-1.114,2.066-1.647,2.039c-0.84-0.043-2.201-0.869-2.359-1.582c-1.558-7.054-2.921-14.15-4.312-21.24
		C590.432,66.968,590.527,66.366,590.527,65.783z"/>
	<path fill-rule="evenodd" clip-rule="evenodd" d="M463.414,54.134c-1.125,1.112-1.791,1.77-2.456,2.427
		c-0.81-0.972-1.922-1.843-2.292-2.96c-0.165-0.498,1.164-1.49,1.815-2.259C461.331,52.15,462.18,52.959,463.414,54.134z"/>
	<path fill-rule="evenodd" clip-rule="evenodd" d="M363.906,56.354c-1.224,1.101-1.898,2.227-2.653,2.285
		c-1.88,0.144-2.251-1.623-2.242-2.944c0.005-0.755,1.119-1.502,1.733-2.253C361.664,54.289,362.584,55.136,363.906,56.354z"/>
	<path fill-rule="evenodd" clip-rule="evenodd" d="M792.93,56.544c-1.274,1.006-2.02,1.594-2.765,2.182
		c-0.746-1.05-1.761-2.02-2.108-3.188c-0.141-0.474,1.175-1.379,1.827-2.089C790.768,54.347,791.651,55.245,792.93,56.544z"/>
	<path fill-rule="evenodd" clip-rule="evenodd" fill="#FFFFFF" d="M729.92,73.075c-2.188,5.27-5.353,9.351-11.054,10.788
		c-3.253,0.819-4.809-0.474-4.625-3.789c0.232-4.223,4.111-9.277,8.146-10.474c2.197-0.65,4.273-0.694,5.674,1.68
		C728.459,71.957,729.222,72.419,729.92,73.075z"/>
	<path fill-rule="evenodd" clip-rule="evenodd" fill="#FFFFFF" d="M755.155,71.631c-2.028-7.534-1.827-14.823,2.021-21.67
		c0.594-1.056,2.426-2.414,3.165-2.154c1.079,0.379,2.385,2.112,2.362,3.243c-0.064,3.251-0.403,6.585-1.274,9.708
		C760.302,64.805,758.259,68.509,755.155,71.631z"/>
	<path fill-rule="evenodd" clip-rule="evenodd" fill="#FFFFFF" d="M686.635,71.721c-0.717-6.547-0.901-13.052,1.773-19.317
		c0.293-0.686,0.512-1.494,1.021-1.977c1.07-1.017,2.311-1.856,3.481-2.768c0.804,1.283,2.352,2.615,2.271,3.84
		c-0.227,3.423-0.671,6.975-1.881,10.151c-1.409,3.703-3.72,7.062-5.64,10.569C687.318,72.054,686.977,71.888,686.635,71.721z"/>
	<path fill-rule="evenodd" clip-rule="evenodd" fill="#FFFFFF" d="M661.315,67.141c-0.41-5.097,0.101-10.003,1.734-14.727
		c0.67-1.937,1.668-3.799,2.785-5.521c0.451-0.695,1.838-1.469,2.413-1.24c0.911,0.363,2.11,1.541,2.109,2.373
		c-0.004,2.924,0.01,6.001-0.867,8.737C668.113,61.056,665.291,64.548,661.315,67.141z"/>
	<path fill-rule="evenodd" clip-rule="evenodd" fill="#FFFFFF" d="M274.97,69.252c-0.296-0.807-0.529-1.159-0.542-1.521
		c-0.214-6.09-0.169-12.155,2.036-17.972c0.147-0.388,0.242-0.812,0.466-1.151c0.874-1.32,1.398-3.645,3.396-2.853
		c0.969,0.384,1.773,2.613,1.7,3.955C281.647,56.742,278.795,62.942,274.97,69.252z"/>
	<path fill-rule="evenodd" clip-rule="evenodd" fill="#FFFFFF" d="M404.789,74.721c1.755,1.914,2.484,6.237,1.389,7.733
		c-0.499,0.681-1.566,0.945-2.375,1.398c-0.383-0.896-1.218-1.882-1.062-2.671C403.152,79.106,403.995,77.117,404.789,74.721z"/>
	<g>
		<path fill-rule="evenodd" clip-rule="evenodd" d="M1275.538-105.923c4.656-0.621,8.381,2.291,8.91,6.991
			c0.173,1.54,0.148,3.115,0.447,4.627c0.597,3.011,3.141,4.92,6.232,4.831c0.142-0.909,0.24-1.835,0.436-2.741
			c1.734-8.051,8.697-13.693,16.92-13.705c8.161-0.013,16.322-0.011,24.483-0.001c8.776,0.011,15.899,6.1,17.289,14.76
			c1.458,9.078-5.031,18.084-14.097,19.525c-1.101,0.175-2.226,0.266-3.341,0.269c-8.023,0.022-16.048,0.013-24.071,0.012
			c-8.854-0.001-15.948-6.007-17.385-14.725c-0.089-0.537-0.125-1.084-0.183-1.602c-0.855-0.158-1.677-0.247-2.462-0.465
			c-3.182-0.884-5.255-3.379-5.633-6.775c-0.164-1.473-0.132-2.977-0.405-4.427c-0.631-3.35-3.019-5.145-6.417-4.965
			c-0.347,0.019-0.619,0.016-0.725-0.375C1275.538-105.1,1275.538-105.512,1275.538-105.923z M1329.891-73.002
			c0.002,0.039,0.005,0.077,0.007,0.116c2.025-0.127,4.078-0.088,6.072-0.409c8.217-1.325,14.02-9.529,12.642-17.729
			c-1.308-7.788-7.723-13.229-15.627-13.252c-2.217-0.006-4.435,0.021-6.651-0.014c-0.691-0.011-1.254,0.137-1.828,0.55
			c-0.584,0.42-1.269,0.726-1.946,0.984c-2.351,0.896-4.808,1.062-7.288,0.905c-2.208-0.141-4.382-0.534-6.248-1.795
			c-0.77-0.52-1.469-0.631-2.35-0.53c-8.218,0.938-14.522,8.238-13.786,16.856c0.662,7.757,6.768,13.724,14.527,14.274
			c0.368,0.025,0.777-0.14,1.126-0.304c0.76-0.359,1.465-0.851,2.244-1.154c2.299-0.895,4.714-1.079,7.148-0.932
			c2.56,0.154,5.025,0.662,7.142,2.263c0.176,0.134,0.465,0.161,0.701,0.163C1327.147-72.995,1328.519-73.002,1329.891-73.002z
			 M1321.544-104.243c-3.245,0-6.491,0-9.736,0C1315.06-103.219,1318.312-103.206,1321.544-104.243z M1311.846-73.038
			c3.24,0,6.48,0,9.721,0C1318.317-74.069,1315.069-74.064,1311.846-73.038z"/>
		<path fill-rule="evenodd" clip-rule="evenodd" fill="#FFFFFF" d="M1329.891-73.002c-1.372,0-2.743,0.008-4.115-0.007
			c-0.236-0.002-0.525-0.029-0.701-0.163c-2.116-1.601-4.582-2.108-7.142-2.263c-2.435-0.147-4.85,0.037-7.148,0.932
			c-0.779,0.304-1.484,0.795-2.244,1.154c-0.349,0.164-0.758,0.329-1.126,0.304c-7.76-0.551-13.865-6.518-14.527-14.274
			c-0.736-8.618,5.568-15.919,13.786-16.856c0.881-0.101,1.58,0.011,2.35,0.53c1.866,1.261,4.04,1.654,6.248,1.795
			c2.48,0.157,4.938-0.009,7.288-0.905c0.678-0.259,1.362-0.564,1.946-0.984c0.574-0.413,1.137-0.561,1.828-0.55
			c2.217,0.035,4.435,0.008,6.651,0.014c7.904,0.022,14.319,5.464,15.627,13.252c1.378,8.2-4.425,16.404-12.642,17.729
			c-1.994,0.321-4.047,0.282-6.072,0.409C1329.896-72.925,1329.893-72.963,1329.891-73.002z M1305.99-88.608
			c0.016-1.367-1.09-2.493-2.455-2.5c-1.343-0.007-2.45,1.066-2.481,2.403c-0.032,1.375,1.051,2.51,2.419,2.533
			C1304.845-86.148,1305.974-87.24,1305.99-88.608z"/>
		<path fill-rule="evenodd" clip-rule="evenodd" fill="#FFFFFF" d="M1321.544-104.243c-3.231,1.037-6.484,1.023-9.736,0
			C1315.053-104.243,1318.299-104.243,1321.544-104.243z"/>
		<path fill-rule="evenodd" clip-rule="evenodd" fill="#FFFFFF" d="M1311.846-73.038c3.224-1.026,6.472-1.031,9.721,0
			C1318.326-73.038,1315.086-73.038,1311.846-73.038z"/>
		<path fill-rule="evenodd" clip-rule="evenodd" d="M1305.99-88.608c-0.017,1.368-1.146,2.46-2.518,2.437
			c-1.368-0.023-2.451-1.158-2.419-2.533c0.031-1.337,1.139-2.41,2.481-2.403C1304.9-91.101,1306.006-89.975,1305.99-88.608z
			 M1303.48-89.471c-0.447,0.086-0.781,0.331-0.77,0.852c0.012,0.478,0.303,0.775,0.778,0.789c0.511,0.016,0.828-0.284,0.84-0.794
			C1304.342-89.139,1304.017-89.401,1303.48-89.471z"/>
		<path fill-rule="evenodd" clip-rule="evenodd" fill="#FFFFFF" d="M1303.48-89.471c0.536,0.07,0.861,0.332,0.849,0.847
			c-0.012,0.51-0.329,0.81-0.84,0.794c-0.476-0.014-0.767-0.312-0.778-0.789C1302.699-89.14,1303.033-89.385,1303.48-89.471z"/>
	</g>
	<g>
		<path fill-rule="evenodd" clip-rule="evenodd" d="M1049.779,57.28c0.445-1.113,0.799-2.007,1.161-2.898
			c3.071-7.562,10.935-11.642,18.891-9.786c0.767,0.179,1.523,0.425,2.255,0.717c8.544,3.405,17.093,6.798,25.618,10.246
			c7.189,2.908,11.219,10.146,9.96,17.793c-0.136,0.825-0.313,1.664-0.622,2.438c-1.395,3.501-2.679,7.059-4.307,10.452
			c-3.035,6.322-10.887,9.854-17.721,8.17c-0.911-0.225-1.816-0.512-2.688-0.859c-8.475-3.373-16.949-6.744-25.406-10.158
			c-7.499-3.026-11.53-10.379-9.974-18.289c0.312-1.582,1.002-3.092,1.564-4.618c0.176-0.472,0.188-0.732-0.275-1.064
			c-1.439-1.034-2.296-2.51-2.819-4.167c-0.499-1.577-0.819-3.216-1.396-4.761c-0.363-0.975-0.899-1.986-1.632-2.697
			c-1.354-1.309,2.109-3.323,3.77,0.382c0.589,1.312,0.883,2.757,1.32,4.139c0.338,1.064,0.629,2.151,1.063,3.178
			C1048.797,56.098,1049.293,56.596,1049.779,57.28z M1066.328,84.144c0.194,0.101,0.323,0.184,0.463,0.238
			c5.747,2.299,11.469,4.671,17.255,6.872c6.836,2.597,14.334-0.764,17.086-7.531c1.056-2.597,2.087-5.201,3.125-7.806
			c2.892-7.255-0.425-15.006-7.685-17.927c-5.413-2.177-10.834-4.335-16.252-6.501c-0.254-0.102-0.508-0.204-0.805-0.322
			C1075.106,62.192,1070.731,73.134,1066.328,84.144z M1052.484,58.137c1.229,0.491,2.4,0.979,3.594,1.416
			c0.177,0.066,0.482-0.046,0.654-0.176c1.26-0.928,2.598-1.089,4.04-0.507c1.465,0.592,2.93,1.182,4.4,1.759
			c1.474,0.577,2.37,1.612,2.626,3.193c0.031,0.197,0.151,0.471,0.307,0.54c0.854,0.383,1.73,0.714,2.623,1.07
			c2.051-5.125,4.066-10.167,6.077-15.192c-2.351-0.939-4.614-1.929-6.939-2.737c-1.085-0.379-2.288-0.555-3.443-0.575
			C1060.181,46.811,1054.641,50.351,1052.484,58.137z M1051.393,60.669c-0.425,1.061-0.812,1.999-1.177,2.947
			c-2.151,5.582-0.298,11.998,4.519,15.554c2.646,1.953,5.838,2.725,8.799,3.995c0.036,0.016,0.096-0.024,0.123-0.032
			c2.014-5.036,4.022-10.059,6.055-15.14c-0.898-0.358-1.738-0.719-2.599-1.019c-0.182-0.062-0.485,0.041-0.659,0.168
			c-1.233,0.903-2.542,1.084-3.961,0.507c-1.486-0.604-2.972-1.208-4.468-1.784c-1.487-0.57-2.363-1.613-2.625-3.188
			c-0.031-0.191-0.169-0.453-0.328-0.521C1053.882,61.65,1052.677,61.183,1051.393,60.669z"/>
		<path fill-rule="evenodd" clip-rule="evenodd" fill="#FFFFFF" d="M1066.328,84.144c4.403-11.01,8.778-21.952,13.188-32.976
			c0.297,0.118,0.551,0.22,0.805,0.322c5.418,2.166,10.839,4.324,16.252,6.501c7.26,2.92,10.576,10.672,7.685,17.927
			c-1.038,2.604-2.069,5.209-3.125,7.806c-2.752,6.768-10.25,10.128-17.086,7.531c-5.786-2.201-11.508-4.573-17.255-6.872
			C1066.651,84.327,1066.522,84.244,1066.328,84.144z"/>
		<path fill-rule="evenodd" clip-rule="evenodd" fill="#FFFFFF" d="M1052.484,58.137c2.156-7.786,7.696-11.326,13.938-11.21
			c1.155,0.02,2.358,0.196,3.443,0.575c2.325,0.809,4.589,1.798,6.939,2.737c-2.011,5.025-4.026,10.067-6.077,15.192
			c-0.893-0.356-1.77-0.688-2.623-1.07c-0.155-0.068-0.275-0.343-0.307-0.54c-0.256-1.581-1.152-2.616-2.626-3.193
			c-1.471-0.577-2.936-1.167-4.4-1.759c-1.442-0.583-2.78-0.421-4.04,0.507c-0.172,0.129-0.478,0.242-0.654,0.176
			C1054.885,59.116,1053.713,58.628,1052.484,58.137z"/>
		<path fill-rule="evenodd" clip-rule="evenodd" fill="#FFFFFF" d="M1051.393,60.669c1.284,0.514,2.489,0.981,3.679,1.488
			c0.159,0.068,0.297,0.33,0.328,0.521c0.262,1.574,1.138,2.617,2.625,3.188c1.496,0.576,2.981,1.181,4.468,1.784
			c1.419,0.577,2.728,0.396,3.961-0.507c0.174-0.127,0.478-0.23,0.659-0.168c0.86,0.3,1.7,0.66,2.599,1.019
			c-2.032,5.081-4.041,10.104-6.055,15.14c-0.027,0.008-0.087,0.048-0.123,0.032c-2.961-1.271-6.153-2.042-8.799-3.995
			c-4.816-3.556-6.67-9.972-4.519-15.554C1050.58,62.668,1050.968,61.729,1051.393,60.669z"/>
	</g>
</g>
<path fill="none" stroke="#000000" stroke-width="3" stroke-miterlimit="10" d="M1043.5,46.924c-7.25-22.174-46-7.924-52.671-3.401
	c-14.904,10.104-30.828,9.926-37.162,21.909c-5.076,9.604-9.06,18.558-3.333,26.699c8.335,11.85,26.78,3.105,30.666,0
	c13.273-10.608,5.669-24.965,5.669-24.965C984.361,63.916,967.1,20.428,939,42.074c-6.988,5.383-7.718,16.081-18.333,32.259
	c-6.999,10.667-19.316,16.696-28.666,16.5C885.498,90.696,858,87.82,852,73.91s-24.841-3.721-28,3.75s-1.423,7.171-1.423,7.171"/>
<g>
	<path fill-rule="evenodd" clip-rule="evenodd" d="M20.567,60.596c2.242-1.049,4.36-2.041,6.592-3.083
		c-0.15-0.315-0.287-0.613-0.427-0.909c-1.38-2.951-2.762-5.904-4.14-8.855c-0.119-0.257-0.246-0.515-0.328-0.781
		c-0.2-0.66-0.005-1.185,0.575-1.472c0.615-0.305,1.165-0.113,1.57,0.482c0.154,0.235,0.263,0.501,0.385,0.76
		c1.369,2.923,2.738,5.85,4.105,8.776c0.144,0.302,0.284,0.605,0.469,0.998c1.083-0.508,2.1-0.997,3.124-1.459
		c0.806-0.366,1.46-0.158,1.85,0.67c1.544,3.282,3.17,6.532,4.552,9.882c1.995,4.844,0.459,10.305-3.587,13.231
		c-0.567,0.412-0.532,0.715-0.264,1.28c1.771,3.736,3.513,7.489,5.267,11.235c0.107,0.232,0.228,0.461,0.316,0.697
		c0.285,0.76,0.063,1.42-0.556,1.699c-0.614,0.275-1.279,0.026-1.637-0.707c-0.851-1.764-1.667-3.539-2.498-5.311
		c-1.045-2.232-2.102-4.46-3.121-6.701c-0.246-0.546-0.474-0.67-1.055-0.519c-4.88,1.266-10.119-1.104-12.567-5.816
		c-1.642-3.163-3.077-6.442-4.582-9.676c-0.419-0.905-0.193-1.5,0.663-1.911c0.989-0.479,1.994-0.936,3.108-1.458
		c-0.157-0.338-0.296-0.632-0.434-0.931c-1.381-2.952-2.761-5.9-4.138-8.854c-0.133-0.28-0.274-0.564-0.352-0.86
		c-0.167-0.628,0.045-1.124,0.586-1.396c0.579-0.291,1.119-0.146,1.521,0.407c0.182,0.251,0.306,0.544,0.437,0.824
		c1.386,2.952,2.763,5.902,4.145,8.856C20.275,59.973,20.407,60.252,20.567,60.596z M17.325,65.01
		c1.373,2.936,2.621,5.884,4.105,8.708c2.145,4.085,7.039,5.724,11.045,3.865c4.026-1.865,5.96-6.638,4.234-10.905
		c-1.188-2.931-2.638-5.765-3.974-8.642c-0.032-0.065-0.116-0.104-0.171-0.154C27.486,60.259,22.425,62.627,17.325,65.01z"/>
	<path fill-rule="evenodd" clip-rule="evenodd" fill="#FFFFFF" d="M17.325,65.01c5.1-2.383,10.161-4.751,15.24-7.127
		c0.055,0.05,0.139,0.089,0.171,0.154c1.336,2.876,2.785,5.71,3.974,8.642c1.726,4.268-0.208,9.04-4.234,10.905
		c-4.006,1.858-8.9,0.22-11.045-3.865C19.946,70.895,18.698,67.946,17.325,65.01z"/>
</g>
<path fill="none" stroke="#000000" stroke-width="3" stroke-miterlimit="10" d="M39.669,92.301c17.665,25.699,46,7.924,52.671,3.4
	c14.904-10.104,33.136-14.467,39.47-26.449c5.076-9.604,3.493-17.91,1.025-22.158c-7.279-12.527-26.78-3.105-30.666,0
	C88.896,57.701,96.5,72.059,96.5,72.059c2.308,3.25,12.354,28.411,47.669,25.092c17.831-1.676,45.958-17.928,36.079-34.565
	c-9-15.156-4.185-28.72,3.753-33.663c13-8.095,27.116-13.669,42,16.672c8.667,17.667,34.729,16.121,36.832,10.449
	c0.965-2.603-0.392-3.138-0.934-3.929c-2.072-3.022-13.158-1.399-11.733,1.326"/>
<path fill="none" stroke="#000000" stroke-width="3" stroke-miterlimit="10" d="M37.5-22.5"/>
<path fill="none" stroke="#000000" stroke-miterlimit="10" d="M260.25,52.75c1.221,0.211,1.509,1.363,2,2.25"/>
<path fill="none" stroke="#000000" stroke-miterlimit="10" d="M260.5,53c0.475,0.852,1.247,1.542,1.5,2.5"/>
<path fill="none" stroke="#000000" stroke-miterlimit="10" d="M258,52.75c1.53,0.133,2.934,1.104,3.75,2.25"/>
<path fill="none" stroke="#000000" stroke-width="0.5" stroke-miterlimit="10" d="M40.5,92.334c-1.018-0.689-1.268-2.078-2-3"/>
<path fill="none" stroke="#000000" stroke-width="0.5" stroke-miterlimit="10" d="M37.667,86.834c0.194,1.717,1.789,2.872,2.708,4.3
	c0.941,1.46,2.089,2.738,2.625,4.533"/>
<path fill="none" stroke="#000000" stroke-width="0.5" stroke-miterlimit="10" d="M823.665,79.333c0,3.103,0.325,4.192,2.667,6"/>
<path fill="none" stroke="#000000" stroke-width="0.5" stroke-miterlimit="10" d="M823.665,83c0.135,0.178,0.366,0.487,0.5,0.666"/>
<path fill="none" stroke="#000000" stroke-width="0.5" stroke-miterlimit="10" d="M823.832,81.5c0.185,0.525,0.24,1.098,0.167,1.666
	"/>
<path fill="none" stroke="#000000" stroke-width="0.5" stroke-miterlimit="10" d="M1042.498,42.333
	c1.337,0.964,3.485,5.035,3.666,6.833"/>
<path fill="none" stroke="#000000" stroke-width="0.5" stroke-miterlimit="10" d="M1041.331,41.833
	c2.263,1.155,2.927,3.194,3.833,5.167"/>
</svg>
